<?xml version="1.0"?>

<svg xmlns="http://www.w3.org/2000/svg" viewBox="0 0 1024 1024" width="1024" height="1024">
  <title>Koh Ride App Icon — iOS preview</title>
  <defs>
    <clipPath id="iosMask">
      <path d="M0,240.64 C0,77.0048 77.0048,0 240.64,0&#xA;               L783.36,0 C946.9952,0 1024,77.0048 1024,240.64&#xA;               L1024,783.36 C1024,946.9952 946.9952,1024 783.36,1024&#xA;               L240.64,1024 C77.0048,1024 0,946.9952 0,783.36 Z"></path>
    </clipPath>
  </defs>

  <g clip-path="url(#iosMask)">
    <rect width="1024" height="1024" fill="#1A1611"></rect>

    <g transform="translate(272 232)">
      <path d="M 0 0 H 280&#xA;           C 360 0 416 70 416 158&#xA;           C 416 230 376 286 316 308&#xA;           C 372 388 428 480 480 560&#xA;           H 366&#xA;           C 314 480 264 392 210 320&#xA;           H 92 V 240 H 266&#xA;           C 300 240 322 212 322 158&#xA;           C 322 108 300 92 266 92&#xA;           H 92 V 0 Z" fill="#F1ECE0"></path>
    </g>

    <circle cx="784" cy="816" r="28" fill="#CD5E33"></circle>

    
    <path d="M0,240.64 C0,77.0048 77.0048,0 240.64,0&#xA;             L783.36,0 C946.9952,0 1024,77.0048 1024,240.64&#xA;             L1024,783.36 C1024,946.9952 946.9952,1024 783.36,1024&#xA;             L240.64,1024 C77.0048,1024 0,946.9952 0,783.36 Z" fill="none" stroke="rgba(0,0,0,0.2)" stroke-width="2"></path>
  </g>
</svg>